<svg xmlns="http://www.w3.org/2000/svg" version="1.1" xmlnsXlink="http://www.w3.org/1999/xlink" xmlnsSvgjs="http://svgjs.dev/svgjs" width="2000" height="606" viewBox="0 0 2000 606"><g transform="matrix(1,0,0,1,-1.2121212121212466,0.5861399401436529)"><svg viewBox="0 0 396 120" data-background-color="#89939e" preserveAspectRatio="xMidYMid meet" height="606" width="2000" xmlns="http://www.w3.org/2000/svg" xmlns:xlink="http://www.w3.org/1999/xlink"><g id="tight-bounds" transform="matrix(1,0,0,1,0.2400000000000091,-0.11606731487992761)"><svg viewBox="0 0 395.52 120.23213462975986" height="120.23213462975986" width="395.52"><g><svg viewBox="0 0 530.1359686996102 161.15336559660622" height="120.23213462975986" width="395.52"><g><rect width="6.666905281300238" height="161.15336559660622" x="110.49643179186958" y="0" fill="#ffffff" opacity="1" stroke-width="0" stroke="transparent" fill-opacity="1" class="rect-o-0" data-fill-palette-color="primary" rx="1%" id="o-0" data-palette-color="#ffffff"></rect></g><g transform="matrix(1,0,0,1,134.61596869961025,0.40087901889701527)"><svg viewBox="0 0 395.52 160.3516075588122" height="160.3516075588122" width="395.52"><g><svg viewBox="0 0 395.52 160.3516075588122" height="160.3516075588122" width="395.52"><g><svg viewBox="0 0 395.52 160.3516075588122" height="160.3516075588122" width="395.52"><g transform="matrix(1,0,0,1,0,0)"><svg width="395.52" viewBox="3.1700000762939453 -34.69000244140625 192.61001586914062 73.68000793457031" height="160.3516075588122" data-palette-color="#ffffff"><svg></svg><svg></svg><g class="undefined-text-0" data-fill-palette-color="primary" id="text-0"><path xmlns="http://www.w3.org/2000/svg" d="M3.17 0l12.33-34.69h4.71l12.33 34.69h-4.2l-3.51-10.08h-14.31l-3.51 10.08zM23.56-13.72l-5.88-16.92-5.91 16.92zM40.84 0v-34.69h4.16v31.05h15.57v3.64zM63.5-31.03v-3.66h27.34v3.66h-11.59v31.03h-4.15v-31.03zM94.14 0l12.33-34.69h4.71l12.33 34.69h-4.2l-3.51-10.08h-14.31l-3.52 10.08zM114.53-13.72l-5.89-16.92-5.91 16.92zM151.9-31.03h-15.94v11.33h14.48v3.66h-14.48v16.04h-4.15v-34.69h20.09z" fill="#ffffff" fill-rule="nonzero" stroke="none" stroke-width="1" stroke-linecap="butt" stroke-linejoin="miter" stroke-miterlimit="10" stroke-dasharray="" stroke-dashoffset="0" font-family="none" font-weight="none" font-size="none" text-anchor="none" style="mix-blend-mode: normal" data-fill-palette-color="primary" opacity="1"></path><path xmlns="http://www.w3.org/2000/svg" d="M20.04 3.49v0c2.673 0 5.547 0.463 8.62 1.39v0l-1.34 3.79c-2.933-0.847-5.473-1.27-7.62-1.27v0c-2.407 0-4.443 0.507-6.11 1.52-1.673 1.02-2.51 2.337-2.51 3.95v0c0 0.893 0.27 1.69 0.81 2.39 0.54 0.7 1.247 1.27 2.12 1.71 0.88 0.44 1.883 0.873 3.01 1.3 1.12 0.433 2.263 0.83 3.43 1.19 1.16 0.353 2.303 0.807 3.43 1.36 1.12 0.553 2.12 1.16 3 1.82 0.88 0.66 1.587 1.52 2.12 2.58 0.54 1.06 0.81 2.257 0.81 3.59v0c0 0.927-0.147 1.85-0.44 2.77-0.293 0.92-0.78 1.83-1.46 2.73-0.687 0.907-1.533 1.7-2.54 2.38-1.013 0.687-2.287 1.24-3.82 1.66-1.54 0.427-3.253 0.64-5.14 0.64-1.893 0-3.633-0.197-5.22-0.59-1.587-0.387-3.363-0.973-5.33-1.76v0l1.42-4.02c4.067 1.513 7.28 2.27 9.64 2.27v0c2.473 0 4.487-0.497 6.04-1.49 1.553-0.993 2.33-2.32 2.33-3.98v0c0-1.107-0.343-2.063-1.03-2.87-0.693-0.807-1.59-1.457-2.69-1.95-1.1-0.5-2.317-0.967-3.65-1.4-1.333-0.427-2.663-0.89-3.99-1.39-1.327-0.493-2.54-1.067-3.64-1.72-1.1-0.647-1.997-1.523-2.69-2.63-0.687-1.113-1.03-2.417-1.03-3.91v0c0-1.333 0.32-2.61 0.96-3.83 0.647-1.227 1.54-2.297 2.68-3.21 1.133-0.92 2.557-1.653 4.27-2.2 1.707-0.547 3.56-0.82 5.56-0.82zM36.4 38.5l12.33-34.69h4.71l12.33 34.69h-4.2l-3.51-10.08h-14.31l-3.52 10.08zM56.79 24.78l-5.89-16.92-5.9 16.92zM80.88 22.07l-11.45-18.26h4.91l8.84 14.33 9.03-14.33h4.64l-11.82 18.26v16.43h-4.15zM125.24 38.5h-20.33v-34.69h20.33v3.66h-16.18v11.33h14.84v3.66h-14.84v12.38h16.18zM156.57 38.5h-20.34v-34.69h20.34v3.66h-16.19v11.33h14.84v3.66h-14.84v12.38h16.19zM178.44 7.47h-6.74v27.37h5.06c0.733 0 1.34-0.01 1.82-0.03 0.48-0.013 1.13-0.06 1.95-0.14 0.82-0.087 1.527-0.21 2.12-0.37 0.593-0.16 1.27-0.397 2.03-0.71 0.76-0.307 1.43-0.68 2.01-1.12 0.587-0.44 1.173-1 1.76-1.68 0.587-0.687 1.1-1.46 1.54-2.32v0c1.073-2.067 1.61-4.583 1.61-7.55v0c0-2.047-0.297-3.897-0.89-5.55-0.593-1.653-1.383-2.997-2.37-4.03-0.98-1.033-2.03-1.85-3.15-2.45-1.113-0.607-2.28-1.013-3.5-1.22v0c-0.713-0.133-1.797-0.2-3.25-0.2zM167.55 3.81h10.75c2.247 0 4.287 0.223 6.12 0.67 1.84 0.447 3.383 1.077 4.63 1.89 1.247 0.813 2.317 1.733 3.21 2.76 0.893 1.027 1.59 2.17 2.09 3.43 0.493 1.26 0.853 2.5 1.08 3.72 0.233 1.22 0.35 2.49 0.35 3.81v0c0 1.513-0.117 2.97-0.35 4.37-0.227 1.4-0.62 2.823-1.18 4.27-0.56 1.453-1.277 2.753-2.15 3.9-0.867 1.147-1.993 2.18-3.38 3.1-1.38 0.92-2.95 1.6-4.71 2.04v0c-0.913 0.227-1.93 0.397-3.05 0.51-1.127 0.113-2.057 0.18-2.79 0.2-0.727 0.013-1.76 0.02-3.1 0.02v0h-7.52z" fill="#ffffff" fill-rule="nonzero" stroke="none" stroke-width="1" stroke-linecap="butt" stroke-linejoin="miter" stroke-miterlimit="10" stroke-dasharray="" stroke-dashoffset="0" font-family="none" font-weight="none" font-size="none" text-anchor="none" style="mix-blend-mode: normal" data-fill-palette-color="primary" opacity="1"></path></g></svg></g></svg></g></svg></g></svg></g><g transform="matrix(1,0,0,1,0,0.40087901889701527)"><svg viewBox="0 0 93.04380016542916 160.3516075588122" height="160.3516075588122" width="93.04380016542916"><g><svg xmlns="http://www.w3.org/2000/svg" data-name="Layer 1" viewBox="22.729999542236328 6 41.53999710083008 71.58999633789062" x="0" y="0" height="160.3516075588122" width="93.04380016542916" class="icon-icon-0" data-fill-palette-color="accent" id="icon-0"><path d="M43.5 77.59L22.73 51.31 43.5 6 64.27 51.31ZM25.64 51L43.5 73.56 61.36 51 43.5 12Z" fill="#ffffff" data-fill-palette-color="accent"></path><path d="M57.88 52.14a1 1 0 0 1-1-1 1 1 0 0 1 0.07-0.38 0.84 0.84 0 0 1 0.22-0.33 1 1 0 0 1 1.41 0 0.83 0.83 0 0 1 0.22 0.33 1 1 0 0 1 0.08 0.38 1 1 0 0 1-1 1Z" fill="#ffffff" data-fill-palette-color="accent"></path><path d="M52.13 51.14a1 1 0 0 1 1-1h0a1 1 0 0 1 1 1h0a1 1 0 0 1-1 1h0A1 1 0 0 1 52.13 51.14Z" fill="#ffffff" data-fill-palette-color="accent"></path><path d="M47.4 51.14a1 1 0 0 1 1-1h0a1 1 0 0 1 1 1h0a1 1 0 0 1-1 1h0A1 1 0 0 1 47.4 51.14Z" fill="#ffffff" data-fill-palette-color="accent"></path><path d="M42.66 51.14a1 1 0 0 1 1-1h0a1 1 0 0 1 1 1h0a1 1 0 0 1-1 1h0A1 1 0 0 1 42.66 51.14Z" fill="#ffffff" data-fill-palette-color="accent"></path><path d="M37.92 51.14a1 1 0 0 1 1-1h0a1 1 0 0 1 1 1h0a1 1 0 0 1-1 1h0A1 1 0 0 1 37.92 51.14Z" fill="#ffffff" data-fill-palette-color="accent"></path><path d="M33.18 51.14a1 1 0 0 1 1-1h0a1 1 0 0 1 1 1h0a1 1 0 0 1-1 1h0A1 1 0 0 1 33.18 51.14Z" fill="#ffffff" data-fill-palette-color="accent"></path><path d="M29.44 52.14a1 1 0 0 1-0.71-0.29 1 1 0 0 1-0.29-0.71 1 1 0 0 1 0.07-0.38 1 1 0 0 1 0.22-0.33 1 1 0 0 1 1.42 0 0.94 0.94 0 0 1 0.21 0.33 1 1 0 0 1 0.08 0.38 1 1 0 0 1-1 1Z" fill="#ffffff" data-fill-palette-color="accent"></path></svg></g></svg></g></svg></g><defs></defs></svg><rect width="395.52" height="120.23213462975986" fill="none" stroke="none" visibility="hidden"></rect></g></svg></g></svg>