<svg xmlns="http://www.w3.org/2000/svg" version="1.1" xmlnsXlink="http://www.w3.org/1999/xlink" xmlnsSvgjs="http://svgjs.dev/svgjs" width="2000" height="318" viewBox="0 0 2000 318"><g transform="matrix(1,0,0,1,-1.2121211703251902,0.9459927448500878)"><svg viewBox="0 0 396 63" data-background-color="#ffffff" preserveAspectRatio="xMidYMid meet" height="318" width="2000" xmlns="http://www.w3.org/2000/svg" xmlns:xlink="http://www.w3.org/1999/xlink"><g id="tight-bounds" transform="matrix(1,0,0,1,0.24000000827567192,-0.1874125978276595)"><svg viewBox="0 0 395.52 63.37482625482627" height="63.37482625482627" width="395.52"><g><svg viewBox="0 0 395.52 63.37482625482627" height="63.37482625482627" width="395.52"><g><svg viewBox="0 0 395.52 63.37482625482627" height="63.37482625482627" width="395.52"><g><svg viewBox="0 0 395.52 63.37482625482627" height="63.37482625482627" width="395.52"><g><svg viewBox="0 0 395.52 63.37482625482627" height="63.37482625482627" width="395.52"><g transform="matrix(1,0,0,1,0,0)"><svg width="395.52" viewBox="0.30000001192092896 -36.54999923706055 284.8700256347656 45.650001525878906" height="63.37482625482627" data-palette-color="#ffffff"><path d="M0.3 0L13.65-34.3 20.65-34.3 33.95 0 28.05 0 24.9-8.35 9.1-8.35 6 0 0.3 0ZM10.85-13.1L23.1-13.1 19.35-23.15 17.1-29.55 16.85-29.55 16.4-28.25Q15.55-25.65 14.65-23.25L14.65-23.25 10.85-13.1ZM37.6 0L37.6-36.15 42.75-36.15 42.75 0 37.6 0ZM55.85 0.55Q52.85 0.55 51.5-1.18 50.15-2.9 50.15-5.45L50.15-5.45 50.15-22.05 46.95-22.05 46.95-26.3 50.2-26.3 51.2-33.65 55.3-33.65 55.3-26.3 59.75-26.3 59.75-22.05 55.3-22.05 55.3-5.95Q55.3-3.65 57.45-3.65L57.45-3.65 59.75-3.65 59.75-0.15Q59.1 0.15 57.97 0.35 56.85 0.55 55.85 0.55L55.85 0.55ZM71.09 0.6Q67.84 0.6 65.22-1 62.59-2.6 62.59-6.8L62.59-6.8Q62.59-11.85 66.99-13.8 71.39-15.75 79.59-15.75L79.59-15.75 79.59-18.35Q79.59-20.5 78.47-21.63 77.34-22.75 74.29-22.75L74.29-22.75Q71.34-22.75 70.12-21.7 68.89-20.65 68.89-19.15L68.89-19.15 68.89-18.5 63.89-18.5Q63.84-18.8 63.84-19.6L63.84-19.6Q63.84-23.05 66.74-24.98 69.64-26.9 74.49-26.9L74.49-26.9Q79.59-26.9 82.17-24.8 84.74-22.7 84.74-18.85L84.74-18.85 84.74-5.4Q84.74-4.5 85.24-4.08 85.74-3.65 86.49-3.65L86.49-3.65 88.29-3.65 88.29-0.2Q86.99 0.45 84.74 0.45L84.74 0.45Q82.94 0.45 81.72-0.53 80.49-1.5 80.09-3.2L80.09-3.2 79.74-3.2Q78.34-1.4 76.17-0.4 73.99 0.6 71.09 0.6L71.09 0.6ZM72.59-3.6Q75.54-3.6 77.57-5.38 79.59-7.15 79.59-10.25L79.59-10.25 79.59-11.85Q73.89-11.85 70.89-10.88 67.89-9.9 67.89-7.2L67.89-7.2Q67.89-5.35 69.07-4.48 70.24-3.6 72.59-3.6L72.59-3.6ZM92.94 0L92.94-22.05 89.14-22.05 89.14-26.3 92.94-26.3 92.94-30.15Q92.94-32.9 94.37-34.73 95.79-36.55 99.09-36.55L99.09-36.55Q100.09-36.55 101.19-36.35 102.29-36.15 103.04-35.9L103.04-35.9 103.04-32.3 100.49-32.3Q98.09-32.3 98.09-30L98.09-30 98.09-26.3 103.04-26.3 103.04-22.05 98.09-22.05 98.09 0 92.94 0ZM133.89 0.6Q127.69 0.6 123.69-1.98 119.69-4.55 119.69-9.8L119.69-9.8 119.74-10.85 125.24-10.85Q125.14-10.15 125.14-9.85L125.14-9.85Q125.14-7.05 127.49-5.58 129.84-4.1 133.84-4.1L133.84-4.1Q138.24-4.1 140.49-5.4 142.74-6.7 142.74-9.15L142.74-9.15Q142.74-10.9 141.51-12.03 140.29-13.15 138.41-13.83 136.54-14.5 133.34-15.35L133.34-15.35Q129.29-16.4 126.71-17.43 124.14-18.45 122.34-20.43 120.54-22.4 120.54-25.6L120.54-25.6Q120.54-30.15 124.29-32.52 128.04-34.9 134.04-34.9L134.04-34.9Q139.94-34.9 143.61-32.45 147.29-30 147.29-25.1L147.29-25.1 147.29-24.5 141.89-24.5 141.89-25.15Q141.89-27.55 139.74-28.88 137.59-30.2 134.14-30.2L134.14-30.2Q130.44-30.2 128.26-29.1 126.09-28 126.09-25.9L126.09-25.9Q126.09-24.35 127.29-23.33 128.49-22.3 130.29-21.65 132.09-21 135.19-20.2L135.19-20.2Q139.39-19.1 141.96-18.1 144.54-17.1 146.39-15.13 148.24-13.15 148.24-9.95L148.24-9.95Q148.24-4.45 144.39-1.93 140.54 0.6 133.89 0.6L133.89 0.6ZM160.88 0.6Q157.63 0.6 155.01-1 152.38-2.6 152.38-6.8L152.38-6.8Q152.38-11.85 156.78-13.8 161.18-15.75 169.38-15.75L169.38-15.75 169.38-18.35Q169.38-20.5 168.26-21.63 167.13-22.75 164.08-22.75L164.08-22.75Q161.13-22.75 159.91-21.7 158.68-20.65 158.68-19.15L158.68-19.15 158.68-18.5 153.68-18.5Q153.63-18.8 153.63-19.6L153.63-19.6Q153.63-23.05 156.53-24.98 159.43-26.9 164.28-26.9L164.28-26.9Q169.38-26.9 171.96-24.8 174.53-22.7 174.53-18.85L174.53-18.85 174.53-5.4Q174.53-4.5 175.03-4.08 175.53-3.65 176.28-3.65L176.28-3.65 178.08-3.65 178.08-0.2Q176.78 0.45 174.53 0.45L174.53 0.45Q172.73 0.45 171.51-0.53 170.28-1.5 169.88-3.2L169.88-3.2 169.53-3.2Q168.13-1.4 165.96-0.4 163.78 0.6 160.88 0.6L160.88 0.6ZM162.38-3.6Q165.33-3.6 167.36-5.38 169.38-7.15 169.38-10.25L169.38-10.25 169.38-11.85Q163.68-11.85 160.68-10.88 157.68-9.9 157.68-7.2L157.68-7.2Q157.68-5.35 158.86-4.48 160.03-3.6 162.38-3.6L162.38-3.6ZM184.83 9.1Q182.38 9.1 180.98 8.6L180.98 8.6 180.98 5.2 183.18 5.2Q187.73 5.2 189.28 0L189.28 0 179.08-26.3 184.48-26.3 189.38-13.4Q190.38-10.85 191.93-5.55L191.93-5.55 192.18-5.55Q193.58-10.55 194.48-13.4L194.48-13.4 198.58-26.3 203.73-26.3 195.03-1.35Q193.23 3.65 190.98 6.38 188.73 9.1 184.83 9.1L184.83 9.1ZM218.78 0.6Q212.43 0.6 209.33-2.75 206.23-6.1 206.23-13.15L206.23-13.15Q206.23-20.2 209.33-23.55 212.43-26.9 218.78-26.9L218.78-26.9Q224.53-26.9 227.38-23.78 230.23-20.65 230.23-13.85L230.23-13.85 230.23-11.85 211.53-11.85Q211.73-7.6 213.45-5.58 215.18-3.55 218.83-3.55L218.83-3.55Q221.68-3.55 223.43-4.9 225.18-6.25 225.18-9.05L225.18-9.05 230.23-9.05Q230.23-4.35 227.05-1.88 223.88 0.6 218.78 0.6L218.78 0.6ZM211.63-15.75L224.88-15.75Q224.88-22.75 218.78-22.75L218.78-22.75Q215.38-22.75 213.68-21.08 211.98-19.4 211.63-15.75L211.63-15.75ZM246.58 0.6Q240.23 0.6 237.13-2.75 234.03-6.1 234.03-13.15L234.03-13.15Q234.03-20.2 237.13-23.55 240.23-26.9 246.58-26.9L246.58-26.9Q252.33-26.9 255.18-23.78 258.03-20.65 258.03-13.85L258.03-13.85 258.03-11.85 239.33-11.85Q239.53-7.6 241.25-5.58 242.98-3.55 246.63-3.55L246.63-3.55Q249.48-3.55 251.23-4.9 252.98-6.25 252.98-9.05L252.98-9.05 258.03-9.05Q258.03-4.35 254.85-1.88 251.68 0.6 246.58 0.6L246.58 0.6ZM239.43-15.75L252.68-15.75Q252.68-22.75 246.58-22.75L246.58-22.75Q243.18-22.75 241.48-21.08 239.78-19.4 239.43-15.75L239.43-15.75ZM272.12 0.6Q267.12 0.6 264.42-2.78 261.72-6.15 261.72-13.15L261.72-13.15Q261.72-20.05 264.42-23.48 267.12-26.9 271.77-26.9L271.77-26.9Q277.22-26.9 279.72-23.3L279.72-23.3 280.02-23.3 280.02-36.15 285.17-36.15 285.17 0 281.07 0 280.57-3.5 280.22-3.5Q278.97-1.5 276.85-0.45 274.72 0.6 272.12 0.6L272.12 0.6ZM273.57-3.75Q276.92-3.75 278.47-6.05 280.02-8.35 280.02-12.85L280.02-12.85 280.02-13.25Q280.02-22.55 273.57-22.55L273.57-22.55Q270.02-22.55 268.52-20.43 267.02-18.3 267.02-13.3L267.02-13.3 267.02-12.85Q267.02-7.95 268.52-5.85 270.02-3.75 273.57-3.75L273.57-3.75Z" opacity="1" transform="matrix(1,0,0,1,0,0)" fill="#ffffff" class="undefined-text-0" data-fill-palette-color="primary" id="text-0"></path></svg></g></svg></g></svg></g></svg></g></svg></g><defs></defs></svg><rect width="395.52" height="63.37482625482627" fill="none" stroke="none" visibility="hidden"></rect></g></svg></g></svg>